<svg xmlns="http://www.w3.org/2000/svg" viewBox="0 0 482.34 482.34"><defs><style>.cls-1{fill:#aaaaab;}.cls-2{fill:#1a2838;}.cls-3{fill:#010f20;}.cls-4{fill:#263547;}.cls-5{fill:none;stroke:#1a2838;stroke-miterlimit:10;stroke-width:5px;}.cls-6{fill:#da1c5c;}.cls-7{fill:#101d2d;}</style></defs><g id="Gear"><g id="outter_gear" data-name="outter gear"><circle class="cls-1" cx="241.25" cy="241.11" r="166.46"/><path class="cls-2" d="M250.14,85.08a164,164,0,1,1-164,164,163.95,163.95,0,0,1,164-163.95m0-5a168.94,168.94,0,1,0,119.47,49.48A167.87,167.87,0,0,0,250.14,80.08Z" transform="translate(-8.89 -7.92)"/></g><g id="inner_hub" data-name="inner hub"><circle class="cls-3" cx="241.11" cy="242.08" r="100.89"/><path class="cls-4" d="M250,151.61A98.39,98.39,0,1,1,151.61,250,98.39,98.39,0,0,1,250,151.61m0-5A103.39,103.39,0,1,0,353.39,250,103.51,103.51,0,0,0,250,146.61Z" transform="translate(-8.89 -7.92)"/></g><g id="gears"><path class="cls-1" d="M220.68,87.73,217.56,68a14.9,14.9,0,0,1,0-4.76L220,48.37a14.78,14.78,0,0,1,.9-3.2L234.18,12.3A3,3,0,0,1,237,10.42h26.8a3,3,0,0,1,2.8,1.93l13,34.09a15.38,15.38,0,0,1,.77,2.75l2.4,13.61a14.71,14.71,0,0,1,.05,4.91l-3.12,20.1" transform="translate(-8.89 -7.92)"/><path class="cls-5" d="M220.68,87.73,217.56,68a14.9,14.9,0,0,1,0-4.76L220,48.37a14.78,14.78,0,0,1,.9-3.2L234.18,12.3A3,3,0,0,1,237,10.42h26.8a3,3,0,0,1,2.8,1.93l13,34.09a15.38,15.38,0,0,1,.77,2.75l2.4,13.61a14.71,14.71,0,0,1,.05,4.91l-3.12,20.1" transform="translate(-8.89 -7.92)"/><path class="cls-1" d="M143.94,124l-12.56-15.51A15.21,15.21,0,0,1,129,104.4l-5.33-14.11a15,15,0,0,1-.83-3.22L117.91,52a3,3,0,0,1,1.47-3l23.21-13.4a3,3,0,0,1,3.4.27l28.33,23a14.76,14.76,0,0,1,2,2l8.89,10.58a14.81,14.81,0,0,1,2.5,4.23l7.35,19" transform="translate(-8.89 -7.92)"/><path class="cls-5" d="M143.94,124l-12.56-15.51A15.21,15.21,0,0,1,129,104.4l-5.33-14.11a15,15,0,0,1-.83-3.22L117.91,52a3,3,0,0,1,1.47-3l23.21-13.4a3,3,0,0,1,3.4.27l28.33,23a14.76,14.76,0,0,1,2,2l8.89,10.58a14.81,14.81,0,0,1,2.5,4.23l7.35,19" transform="translate(-8.89 -7.92)"/><path class="cls-1" d="M95.63,193.85,77,186.7a15,15,0,0,1-4.12-2.39L61.2,174.76a15.43,15.43,0,0,1-2.33-2.38L37.05,144.44a3,3,0,0,1-.23-3.35l13.4-23.21a3,3,0,0,1,3.07-1.46l36,5.76a15.54,15.54,0,0,1,2.76.71l13,4.72a15.32,15.32,0,0,1,4.28,2.41l15.84,12.75" transform="translate(-8.89 -7.92)"/><path class="cls-5" d="M95.63,193.85,77,186.7a15,15,0,0,1-4.12-2.39L61.2,174.76a15.43,15.43,0,0,1-2.33-2.38L37.05,144.44a3,3,0,0,1-.23-3.35l13.4-23.21a3,3,0,0,1,3.07-1.46l36,5.76a15.54,15.54,0,0,1,2.76.71l13,4.72a15.32,15.32,0,0,1,4.28,2.41l15.84,12.75" transform="translate(-8.89 -7.92)"/><path class="cls-1" d="M88.7,278.47,69,281.59a15.2,15.2,0,0,1-4.76,0l-14.89-2.43a14.78,14.78,0,0,1-3.2-.9L13.26,265a3,3,0,0,1-1.87-2.78v-26.8a3,3,0,0,1,1.92-2.8l34.09-13a15.35,15.35,0,0,1,2.75-.76l13.61-2.4a15,15,0,0,1,4.91-.06l20.1,3.13" transform="translate(-8.89 -7.92)"/><path class="cls-5" d="M88.7,278.47,69,281.59a15.2,15.2,0,0,1-4.76,0l-14.89-2.43a14.78,14.78,0,0,1-3.2-.9L13.26,265a3,3,0,0,1-1.87-2.78v-26.8a3,3,0,0,1,1.92-2.8l34.09-13a15.35,15.35,0,0,1,2.75-.76l13.61-2.4a15,15,0,0,1,4.91-.06l20.1,3.13" transform="translate(-8.89 -7.92)"/><path class="cls-1" d="M125,355.21l-15.51,12.56a14.78,14.78,0,0,1-4.13,2.37l-14.11,5.34a15,15,0,0,1-3.22.83l-35.11,4.92a3,3,0,0,1-3-1.47l-13.4-23.21a3,3,0,0,1,.27-3.39l23-28.33a15.42,15.42,0,0,1,2-2l10.58-8.88a14.81,14.81,0,0,1,4.23-2.5l19-7.35" transform="translate(-8.89 -7.92)"/><path class="cls-5" d="M125,355.21l-15.51,12.56a14.78,14.78,0,0,1-4.13,2.37l-14.11,5.34a15,15,0,0,1-3.22.83l-35.11,4.92a3,3,0,0,1-3-1.47l-13.4-23.21a3,3,0,0,1,.27-3.39l23-28.33a15.42,15.42,0,0,1,2-2l10.58-8.88a14.81,14.81,0,0,1,4.23-2.5l19-7.35" transform="translate(-8.89 -7.92)"/><path class="cls-1" d="M194.81,403.52l-7.15,18.63a14.75,14.75,0,0,1-2.39,4.12L175.72,438a15,15,0,0,1-2.38,2.33L145.4,462.1a3,3,0,0,1-3.34.23l-23.21-13.4a3,3,0,0,1-1.47-3.07l5.76-36a15.32,15.32,0,0,1,.71-2.76l4.72-13a15,15,0,0,1,2.42-4.28L143.74,374" transform="translate(-8.89 -7.92)"/><path class="cls-5" d="M194.81,403.52l-7.15,18.63a14.75,14.75,0,0,1-2.39,4.12L175.72,438a15,15,0,0,1-2.38,2.33L145.4,462.1a3,3,0,0,1-3.34.23l-23.21-13.4a3,3,0,0,1-1.47-3.07l5.76-36a15.32,15.32,0,0,1,.71-2.76l4.72-13a15,15,0,0,1,2.42-4.28L143.74,374" transform="translate(-8.89 -7.92)"/><path class="cls-1" d="M279.43,410.45l3.12,19.72a14.91,14.91,0,0,1,0,4.76l-2.43,14.88a14.87,14.87,0,0,1-.9,3.21l-13.28,32.87a3,3,0,0,1-2.79,1.87h-26.8a3,3,0,0,1-2.8-1.93l-13-34.09a15.48,15.48,0,0,1-.76-2.74l-2.4-13.61a14.78,14.78,0,0,1-.05-4.92l3.12-20.09" transform="translate(-8.89 -7.92)"/><path class="cls-5" d="M279.43,410.45l3.12,19.72a14.91,14.91,0,0,1,0,4.76l-2.43,14.88a14.87,14.87,0,0,1-.9,3.21l-13.28,32.87a3,3,0,0,1-2.79,1.87h-26.8a3,3,0,0,1-2.8-1.93l-13-34.09a15.48,15.48,0,0,1-.76-2.74l-2.4-13.61a14.78,14.78,0,0,1-.05-4.92l3.12-20.09" transform="translate(-8.89 -7.92)"/><path class="cls-1" d="M356.17,374.15l12.56,15.51a15.06,15.06,0,0,1,2.38,4.13l5.33,14.11a15,15,0,0,1,.83,3.22l4.93,35.11a3,3,0,0,1-1.48,3l-23.21,13.4a3,3,0,0,1-3.39-.27l-28.33-23a14.76,14.76,0,0,1-2-2l-8.89-10.58a15.09,15.09,0,0,1-2.5-4.23l-7.35-19" transform="translate(-8.89 -7.92)"/><path class="cls-5" d="M356.17,374.15l12.56,15.51a15.06,15.06,0,0,1,2.38,4.13l5.33,14.11a15,15,0,0,1,.83,3.22l4.93,35.11a3,3,0,0,1-1.48,3l-23.21,13.4a3,3,0,0,1-3.39-.27l-28.33-23a14.76,14.76,0,0,1-2-2l-8.89-10.58a15.09,15.09,0,0,1-2.5-4.23l-7.35-19" transform="translate(-8.89 -7.92)"/><path class="cls-1" d="M404.48,304.33l18.64,7.16a15,15,0,0,1,4.12,2.39l11.67,9.55a15,15,0,0,1,2.33,2.38l21.82,27.93a3,3,0,0,1,.23,3.35l-13.4,23.21a3,3,0,0,1-3.07,1.46l-36-5.75a14.75,14.75,0,0,1-2.76-.72l-13-4.72a15.07,15.07,0,0,1-4.28-2.41l-15.84-12.75" transform="translate(-8.89 -7.92)"/><path class="cls-5" d="M404.48,304.33l18.64,7.16a15,15,0,0,1,4.12,2.39l11.67,9.55a15,15,0,0,1,2.33,2.38l21.82,27.93a3,3,0,0,1,.23,3.35l-13.4,23.21a3,3,0,0,1-3.07,1.46l-36-5.75a14.75,14.75,0,0,1-2.76-.72l-13-4.72a15.07,15.07,0,0,1-4.28-2.41l-15.84-12.75" transform="translate(-8.89 -7.92)"/><path class="cls-1" d="M411.41,219.72l19.72-3.12a14.9,14.9,0,0,1,4.76,0L450.78,219a14.94,14.94,0,0,1,3.2.9l32.87,13.28a3,3,0,0,1,1.87,2.78v26.8a3,3,0,0,1-1.93,2.81l-34.09,13a14.46,14.46,0,0,1-2.74.76l-13.61,2.41a15,15,0,0,1-4.91.05l-20.1-3.12" transform="translate(-8.89 -7.92)"/><path class="cls-5" d="M411.41,219.72l19.72-3.12a14.9,14.9,0,0,1,4.76,0L450.78,219a14.94,14.94,0,0,1,3.2.9l32.87,13.28a3,3,0,0,1,1.87,2.78v26.8a3,3,0,0,1-1.93,2.81l-34.09,13a14.46,14.46,0,0,1-2.74.76l-13.61,2.41a15,15,0,0,1-4.91.05l-20.1-3.12" transform="translate(-8.89 -7.92)"/><path class="cls-1" d="M375.11,143l15.51-12.57a15.29,15.29,0,0,1,4.13-2.37l14.11-5.34a14.92,14.92,0,0,1,3.22-.82L447.19,117a3,3,0,0,1,3,1.47l13.4,23.21a3,3,0,0,1-.27,3.39l-23,28.34a14.76,14.76,0,0,1-2,2l-10.58,8.89a15,15,0,0,1-4.23,2.5l-19,7.34" transform="translate(-8.89 -7.92)"/><path class="cls-5" d="M375.11,143l15.51-12.57a15.29,15.29,0,0,1,4.13-2.37l14.11-5.34a14.92,14.92,0,0,1,3.22-.82L447.19,117a3,3,0,0,1,3,1.47l13.4,23.21a3,3,0,0,1-.27,3.39l-23,28.34a14.76,14.76,0,0,1-2,2l-10.58,8.89a15,15,0,0,1-4.23,2.5l-19,7.34" transform="translate(-8.89 -7.92)"/><path class="cls-1" d="M305.3,94.67,312.45,76a15,15,0,0,1,2.39-4.12l9.55-11.67a14.18,14.18,0,0,1,2.38-2.33l27.94-21.82a3,3,0,0,1,3.34-.23l23.21,13.4a3,3,0,0,1,1.47,3.07l-5.76,36a15.54,15.54,0,0,1-.71,2.76l-4.72,13a15.1,15.1,0,0,1-2.42,4.28l-12.75,15.84" transform="translate(-8.89 -7.92)"/><path class="cls-5" d="M305.3,94.67,312.45,76a15,15,0,0,1,2.39-4.12l9.55-11.67a14.18,14.18,0,0,1,2.38-2.33l27.94-21.82a3,3,0,0,1,3.34-.23l23.21,13.4a3,3,0,0,1,1.47,3.07l-5.76,36a15.54,15.54,0,0,1-.71,2.76l-4.72,13a15.1,15.1,0,0,1-2.42,4.28l-12.75,15.84" transform="translate(-8.89 -7.92)"/><path class="cls-1" d="M220.68,87.73,217.56,68a14.9,14.9,0,0,1,0-4.76L220,48.37a14.78,14.78,0,0,1,.9-3.2L234.18,12.3A3,3,0,0,1,237,10.42h26.8a3,3,0,0,1,2.8,1.93l13,34.09a15.38,15.38,0,0,1,.77,2.75l2.4,13.61a14.71,14.71,0,0,1,.05,4.91l-3.12,20.1" transform="translate(-8.89 -7.92)"/><path class="cls-5" d="M220.68,87.73,217.56,68a14.9,14.9,0,0,1,0-4.76L220,48.37a14.78,14.78,0,0,1,.9-3.2L234.18,12.3A3,3,0,0,1,237,10.42h26.8a3,3,0,0,1,2.8,1.93l13,34.09a15.38,15.38,0,0,1,.77,2.75l2.4,13.61a14.71,14.71,0,0,1,.05,4.91l-3.12,20.1" transform="translate(-8.89 -7.92)"/></g></g><g id="Heart"><path class="cls-6" d="M153.2,273.15l-13.85-15.24a28,28,0,0,1-3.17-4.24L131.53,246a27.61,27.61,0,0,1-3-7l-3.75-13.74a27.4,27.4,0,0,1-.9-9.19l1-13.63a27.74,27.74,0,0,1,1.79-8l4.86-12.51a27.17,27.17,0,0,1,3.22-6l6.46-9.1a27.55,27.55,0,0,1,5.62-5.84l7.72-6a27.86,27.86,0,0,1,6.8-3.85l9.51-3.71a27.39,27.39,0,0,1,6.78-1.69l13.61-1.6a28.65,28.65,0,0,1,3.21-.19,26,26,0,0,1,3.18.19l10.24,1.19a27.4,27.4,0,0,1,7.33,1.9l10.51,4.34a27.36,27.36,0,0,1,8,5.07L250,171.5l15.43-14.56a27.18,27.18,0,0,1,8.37-5.41l10.29-4.25a27.33,27.33,0,0,1,7.32-1.9l10.25-1.19a26,26,0,0,1,3.18-.19,28.65,28.65,0,0,1,3.21.19l13.61,1.6a27.39,27.39,0,0,1,6.78,1.69l9.51,3.71a27.47,27.47,0,0,1,6.79,3.85l7.73,6a27.55,27.55,0,0,1,5.62,5.84l6.46,9.1a27.39,27.39,0,0,1,3.22,6l4.85,12.51a27.41,27.41,0,0,1,1.79,8l1,13.63a27.4,27.4,0,0,1-.9,9.19L370.71,239a27.61,27.61,0,0,1-3,7L363,253.67a27.32,27.32,0,0,1-3.16,4.24l-13.82,15.2L250,375.46Z" transform="translate(-8.89 -7.92)"/><path class="cls-7" d="M304.81,146.5a26,26,0,0,1,2.92.17l13.6,1.6a25.14,25.14,0,0,1,6.17,1.54l9.51,3.71a25.18,25.18,0,0,1,6.18,3.5l7.72,5.95a24.8,24.8,0,0,1,5.11,5.32l6.46,9.09a25.12,25.12,0,0,1,2.93,5.45l4.85,12.51a25.09,25.09,0,0,1,1.63,7.25l1,13.62a25.05,25.05,0,0,1-.81,8.36l-3.75,13.75a25.56,25.56,0,0,1-2.74,6.38l-4.65,7.67a25.32,25.32,0,0,1-2.88,3.86l-13.82,15.2L250,371.81,155,271.43l-13.82-15.2a25.32,25.32,0,0,1-2.88-3.86l-4.65-7.67a24.85,24.85,0,0,1-2.74-6.38l-3.75-13.75a24.8,24.8,0,0,1-.81-8.36l1-13.62a24.77,24.77,0,0,1,1.63-7.25l4.85-12.51a24.7,24.7,0,0,1,2.93-5.45l6.46-9.09a24.8,24.8,0,0,1,5.11-5.32L156,157a25,25,0,0,1,6.18-3.5l9.51-3.71a25.17,25.17,0,0,1,6.16-1.54l13.61-1.6a25.85,25.85,0,0,1,2.92-.17,25.46,25.46,0,0,1,2.89.17l10.25,1.19a25.17,25.17,0,0,1,6.65,1.73l10.52,4.34a24.85,24.85,0,0,1,7.27,4.61l18,16.36,17.11-16.14a25.06,25.06,0,0,1,7.61-4.92l10.3-4.25a25,25,0,0,1,6.65-1.73l10.25-1.19a25.46,25.46,0,0,1,2.89-.17m0-5a31.05,31.05,0,0,0-3.47.2l-10.25,1.2a29.43,29.43,0,0,0-8,2.07l-10.3,4.25a30,30,0,0,0-9.13,5.9l-13.74,13-14.58-13.25a29.86,29.86,0,0,0-8.73-5.53L216.12,145a29.4,29.4,0,0,0-8-2.07l-10.25-1.2a30.74,30.74,0,0,0-3.46-.2,29.39,29.39,0,0,0-3.51.21l-13.6,1.6a29.85,29.85,0,0,0-7.4,1.85l-9.51,3.7a29.83,29.83,0,0,0-7.41,4.2l-7.73,6a29.87,29.87,0,0,0-6.13,6.37l-6.46,9.1a30,30,0,0,0-3.52,6.53l-4.85,12.51a29.92,29.92,0,0,0-2,8.71l-1,13.62a30,30,0,0,0,1,10l3.75,13.74a30,30,0,0,0,3.28,7.66l4.66,7.67a29.47,29.47,0,0,0,3.45,4.63l13.82,15.2,0,0,0,0,95,100.39,3.64,3.86,3.64-3.87,94.2-100.39,0,0,0,0,13.81-15.2a29.53,29.53,0,0,0,3.46-4.63l4.65-7.67a29.7,29.7,0,0,0,3.29-7.66l3.75-13.74a30,30,0,0,0,1-10l-1-13.62a29.93,29.93,0,0,0-2-8.71L370.07,181a30,30,0,0,0-3.51-6.53l-6.46-9.1A29.92,29.92,0,0,0,354,159l-7.72-6a29.89,29.89,0,0,0-7.42-4.2l-9.5-3.7a30.07,30.07,0,0,0-7.4-1.85l-13.61-1.6a29.1,29.1,0,0,0-3.5-.21Z" transform="translate(-8.89 -7.92)"/></g></svg>